<svg version="1.1" xmlns="http://www.w3.org/2000/svg" viewBox="0 0 1498 1152.9999999999993" width="1498" height="1152.9999999999993">
  <!-- svg-source:excalidraw -->
  
  <defs>
    <style>
      @font-face {
        font-family: "Virgil";
        src: url("https://excalidraw.com/Virgil.woff2");
      }
      @font-face {
        font-family: "Cascadia";
        src: url("https://excalidraw.com/Cascadia.woff2");
      }
    </style>
  </defs>
  <rect x="0" y="0" width="1498" height="1152.9999999999993" fill="#ffffff"></rect><g stroke-linecap="round" transform="translate(10 176.8888888888889) rotate(0 122.5 84)"><path d="M42 0 M42 0 C92.06 0.58, 148.33 -6.2, 203 0 M42 0 C101.09 -0.6, 156.32 -0.45, 203 0 M203 0 C234.96 1.55, 245.42 10.17, 245 42 M203 0 C229.39 3.87, 243.2 11.23, 245 42 M245 42 C241.96 63.85, 241.41 87.63, 245 126 M245 42 C244.45 63.04, 244.72 81.1, 245 126 M245 126 C244.54 154.05, 234.14 166.15, 203 168 M245 126 C246.9 155.45, 229.06 168.45, 203 168 M203 168 C145.04 170.32, 94.92 168.4, 42 168 M203 168 C143.98 167.52, 89.46 169.77, 42 168 M42 168 C17.09 164.3, -0.04 152.78, 0 126 M42 168 C10.61 169.4, -2.71 156.84, 0 126 M0 126 C-1.53 100.85, -2.36 71.7, 0 42 M0 126 C1.19 104.79, 0.34 83.13, 0 42 M0 42 C-0.55 13.28, 16.11 1.55, 42 0 M0 42 C3.03 15.17, 15.27 4.13, 42 0" stroke="#000000" stroke-width="1" fill="none"></path></g><g transform="translate(12.5 245.3888888888889) rotate(0 114 12.5)"><text x="114" y="18" font-family="Virgil, Segoe UI Emoji" font-size="20px" fill="#000000" text-anchor="middle" style="white-space: pre;" direction="ltr">embedded_constants.py</text></g><g stroke-linecap="round" transform="translate(172 577) rotate(0 132 84.5)"><path d="M42.25 0 M42.25 0 C113.85 1.85, 177.74 3.74, 221.75 0 M42.25 0 C83.09 -2.06, 121 -3.74, 221.75 0 M221.75 0 C246.93 -1.57, 261.03 16.49, 264 42.25 M221.75 0 C252.16 1.39, 265.08 11.59, 264 42.25 M264 42.25 C266.48 62.16, 266.75 84.84, 264 126.75 M264 42.25 C264.05 76.4, 263.63 109.29, 264 126.75 M264 126.75 C267.35 155.32, 249.8 171.63, 221.75 169 M264 126.75 C263.53 152.95, 250.42 170.66, 221.75 169 M221.75 169 C178.07 168.77, 132.71 164.35, 42.25 169 M221.75 169 C164.24 166.27, 105.97 163.84, 42.25 169 M42.25 169 C13.64 167.61, 1.1 152.29, 0 126.75 M42.25 169 C10.28 171.54, -2.47 152.03, 0 126.75 M0 126.75 C0.94 110.96, -2.9 96.19, 0 42.25 M0 126.75 C-0.06 95.18, -1.1 64.52, 0 42.25 M0 42.25 C-0.08 11.92, 16.93 0.45, 42.25 0 M0 42.25 C4.06 18.15, 13.88 1.2, 42.25 0" stroke="#000000" stroke-width="1" fill="none"></path></g><g transform="translate(225 646.4444444444443) rotate(0 79.5 12.5)"><text x="0" y="18" font-family="Virgil, Segoe UI Emoji" font-size="20px" fill="#000000" text-anchor="start" style="white-space: pre;" direction="ltr">binary_parser.py</text></g><g stroke-linecap="round" transform="translate(728 670) rotate(0 133 83.5)"><path d="M41.75 0 M41.75 0 C100.05 0.25, 162.45 3.33, 224.25 0 M41.75 0 C98.17 -1.18, 156.9 -1.25, 224.25 0 M224.25 0 C255.32 -3.52, 264.89 10.07, 266 41.75 M224.25 0 C247.53 -1.2, 268.01 15.75, 266 41.75 M266 41.75 C262.92 67.31, 266.03 98.16, 266 125.25 M266 41.75 C265.35 71.09, 265.32 97.92, 266 125.25 M266 125.25 C262.89 151.85, 250.56 163.4, 224.25 167 M266 125.25 C261.55 156.94, 256.65 168.3, 224.25 167 M224.25 167 C185.8 163.19, 148.52 162.6, 41.75 167 M224.25 167 C181.17 171.5, 138.7 169.01, 41.75 167 M41.75 167 C13.88 166.27, -0.93 153.77, 0 125.25 M41.75 167 C16.42 165.71, 3.68 152.41, 0 125.25 M0 125.25 C3.55 96.07, -3.54 59.86, 0 41.75 M0 125.25 C-2.48 108.99, -1.05 88.97, 0 41.75 M0 41.75 C-1.89 10.23, 16.38 0.09, 41.75 0 M0 41.75 C-4.22 15.2, 11.86 -4.28, 41.75 0" stroke="#000000" stroke-width="1" fill="none"></path></g><g transform="translate(781.5 738) rotate(0 86.5 12.5)"><text x="86.5" y="18" font-family="Virgil, Segoe UI Emoji" font-size="20px" fill="#000000" text-anchor="middle" style="white-space: pre;" direction="ltr">plot_generator.py</text></g><g stroke-linecap="round"><g transform="translate(163.4588033923169 354.5008754924768) rotate(0 38.39575665675625 106.08232499803933)"><path d="M2.08 1.61 C14.17 36.96, 62.18 175.31, 74.71 210.55" stroke="#000000" stroke-width="1.5" fill="none" stroke-dasharray="8 9"></path></g><g transform="translate(163.4588033923169 354.5008754924768) rotate(0 38.39575665675625 106.08232499803933)"><path d="M58 187.64 C62.7 199.79, 73.43 201.94, 72.13 214.1" stroke="#000000" stroke-width="1.5" fill="none"></path></g><g transform="translate(163.4588033923169 354.5008754924768) rotate(0 38.39575665675625 106.08232499803933)"><path d="M77.37 180.85 C74.68 195.85, 78.1 200.56, 72.13 214.1" stroke="#000000" stroke-width="1.5" fill="none"></path></g></g><g stroke-linecap="round" transform="translate(1039 230.5) rotate(0 133 83.5)"><path d="M41.75 0 M41.75 0 C86.05 2.56, 133.51 2.1, 224.25 0 M41.75 0 C107.01 2.97, 173.14 0.01, 224.25 0 M224.25 0 C253.71 -2.18, 263.53 11.09, 266 41.75 M224.25 0 C256.58 0.25, 268.09 9.92, 266 41.75 M266 41.75 C264.87 64.31, 268.75 86.97, 266 125.25 M266 41.75 C265.54 62.96, 264.42 86.89, 266 125.25 M266 125.25 C269.35 155.15, 254.91 167.74, 224.25 167 M266 125.25 C264.88 154.52, 250.7 170.71, 224.25 167 M224.25 167 C160.03 172.17, 97.69 165.49, 41.75 167 M224.25 167 C166.7 168.8, 111.14 169.03, 41.75 167 M41.75 167 C13.83 166.6, -1.87 152.83, 0 125.25 M41.75 167 C12.64 170.31, -0.42 155.35, 0 125.25 M0 125.25 C-0.47 107.29, -2.39 91.57, 0 41.75 M0 125.25 C-0.99 97.97, -1.11 75.93, 0 41.75 M0 41.75 C-0.15 14.43, 10.73 -3.73, 41.75 0 M0 41.75 C2.32 12.71, 14.15 2.41, 41.75 0" stroke="#000000" stroke-width="1" fill="none"></path></g><g transform="translate(1073 298.5) rotate(0 106 12.5)"><text x="106" y="18" font-family="Virgil, Segoe UI Emoji" font-size="20px" fill="#000000" text-anchor="middle" style="white-space: pre;" direction="ltr">log_visualizer.py/ipynb</text></g><g stroke-linecap="round"><g transform="translate(451.99879344946385 619.9903146598131) rotate(0 290.79364019137506 -136.01346242345443)"><path d="M-0.95 -0.21 C96.61 -44.54, 485.32 -222.96, 582.53 -267.55 M3.74 -2.8 C101.13 -47.8, 483.96 -226.83, 580.04 -271.81" stroke="#000000" stroke-width="1" fill="none"></path></g><g transform="translate(451.99879344946385 619.9903146598131) rotate(0 290.79364019137506 -136.01346242345443)"><path d="M558.55 -251.24 C565.31 -255.6, 569.2 -256.58, 584 -268.08 M560.19 -251.77 C563.71 -256.76, 569.72 -263.83, 578.05 -271.08" stroke="#000000" stroke-width="1" fill="none"></path></g><g transform="translate(451.99879344946385 619.9903146598131) rotate(0 290.79364019137506 -136.01346242345443)"><path d="M549.85 -269.83 C558.14 -270.41, 563.77 -267.68, 584 -268.08 M551.5 -270.36 C557.46 -269.82, 566.02 -271.43, 578.05 -271.08" stroke="#000000" stroke-width="1" fill="none"></path></g></g><g transform="translate(661.1976967931209 445.9124252413603) rotate(335.1196331408183 85.4340560456983 14.431428386097707)"><text x="0" y="19.86285677219536" font-family="Virgil, Segoe UI Emoji" font-size="23.090285417756313px" fill="#000000" text-anchor="start" style="white-space: pre;" direction="ltr">processed_logs</text></g><g stroke-linecap="round"><g transform="translate(1034.430709168496 399.53016780024086) rotate(0 -103.82714068347809 127.86661121738297)"><path d="M-1.64 1.31 C-36.95 43.43, -176.2 211.53, -210.32 253.58 M2.67 -0.45 C-31.89 41.91, -170.02 213.48, -204.98 256.18" stroke="#000000" stroke-width="1" fill="none"></path></g><g transform="translate(1034.430709168496 399.53016780024086) rotate(0 -103.82714068347809 127.86661121738297)"><path d="M-193.32 225.03 C-201.2 240.65, -204.61 244.43, -201.33 255.1 M-194.31 228.6 C-200.05 237.46, -203.43 249.11, -203.89 257.71" stroke="#000000" stroke-width="1" fill="none"></path></g><g transform="translate(1034.430709168496 399.53016780024086) rotate(0 -103.82714068347809 127.86661121738297)"><path d="M-177.38 237.95 C-191.01 248.79, -200.08 247.98, -201.33 255.1 M-178.38 241.53 C-189.96 245.57, -199.21 252.48, -203.89 257.71" stroke="#000000" stroke-width="1" fill="none"></path></g></g><g transform="translate(845 498.5000000000001) rotate(310.60129464500454 74 12.5)"><text x="0" y="18" font-family="Virgil, Segoe UI Emoji" font-size="20px" fill="#000000" text-anchor="start" style="white-space: pre;" direction="ltr">processed_logs</text></g><g stroke-linecap="round"><g transform="translate(976.6789048238661 656) rotate(0 96.55437765485681 -121.77454435765748)"><path d="M-1.16 -2.58 C31.52 -43.85, 162.38 -205.77, 194.27 -245.73 M3.4 2.19 C36.05 -39.01, 161.01 -203.4, 193.09 -243.59" stroke="#000000" stroke-width="1" fill="none"></path></g><g transform="translate(976.6789048238661 656) rotate(0 96.55437765485681 -121.77454435765748)"><path d="M180.21 -212.27 C181.78 -224.71, 188.73 -226.24, 194.1 -239.84 M183.18 -216.24 C187.34 -222.13, 186.24 -226.72, 191.52 -245.09" stroke="#000000" stroke-width="1" fill="none"></path></g><g transform="translate(976.6789048238661 656) rotate(0 96.55437765485681 -121.77454435765748)"><path d="M164 -224.85 C169.55 -234.21, 180.31 -232.78, 194.1 -239.84 M166.98 -228.83 C174.8 -232.07, 177.34 -233.84, 191.52 -245.09" stroke="#000000" stroke-width="1" fill="none"></path></g></g><g transform="translate(1018 532) rotate(310.0062560141766 24 12.5)"><text x="0" y="18" font-family="Virgil, Segoe UI Emoji" font-size="20px" fill="#000000" text-anchor="start" style="white-space: pre;" direction="ltr">plots</text></g><g stroke-linecap="round"><g transform="translate(394 767.5) rotate(0 0.13433958068492302 127.40589924082167)"><path d="M2.43 0.31 C2 42.39, -1.87 212.42, -2.17 254.5" stroke="#000000" stroke-width="1.5" fill="none" stroke-dasharray="1.5 7"></path></g><g transform="translate(394 767.5) rotate(0 0.13433958068492302 127.40589924082167)"><path d="M-11.53 223.05 C-9.19 235.89, -8.53 239.86, -5.39 258.31" stroke="#000000" stroke-width="1.5" fill="none" stroke-dasharray="1.5 5"></path></g><g transform="translate(394 767.5) rotate(0 0.13433958068492302 127.40589924082167)"><path d="M8.99 223.38 C4.86 236.47, -0.94 240.34, -5.39 258.31" stroke="#000000" stroke-width="1.5" fill="none" stroke-dasharray="1.5 5"></path></g></g><g transform="translate(316.9999999999998 1046.5) rotate(3.562221243239139e-13 92.5 12.5)"><text x="0" y="18" font-family="Virgil, Segoe UI Emoji" font-size="20px" fill="#000000" text-anchor="start" style="white-space: pre;" direction="ltr">processed_logs.csv</text></g><g stroke-linecap="round"><g transform="translate(195 758) rotate(0 -2.0960176978022673 134.6897710654884)"><path d="M-1.71 0.23 C-1.79 44.96, -2.74 223.93, -2.42 269.15" stroke="#000000" stroke-width="1.5" fill="none" stroke-dasharray="1.5 7"></path></g><g transform="translate(195 758) rotate(0 -2.0960176978022673 134.6897710654884)"><path d="M-12.35 239.23 C-12.92 249.61, -7.15 253.87, -4.84 265.21" stroke="#000000" stroke-width="1.5" fill="none" stroke-dasharray="1.5 5"></path></g><g transform="translate(195 758) rotate(0 -2.0960176978022673 134.6897710654884)"><path d="M8.17 239.23 C2.89 249.36, 3.96 253.62, -4.84 265.21" stroke="#000000" stroke-width="1.5" fill="none" stroke-dasharray="1.5 5"></path></g></g><g transform="translate(121.11111111111109 1048) rotate(0 62.5 12.5)"><text x="0" y="18" font-family="Virgil, Segoe UI Emoji" font-size="20px" fill="#000000" text-anchor="start" style="white-space: pre;" direction="ltr">raw_logs.csv</text></g><g stroke-linecap="round"><g transform="translate(1351.633271241917 833.9999999999995) rotate(0 -3.815488443888171 130.12538436427712)"><path d="M0.03 0.9 C-1.04 43.89, -6.66 215.93, -7.66 259.35" stroke="#000000" stroke-width="1.5" fill="none" stroke-dasharray="1.5 7"></path></g><g transform="translate(1351.633271241917 833.9999999999995) rotate(0 -3.815488443888171 130.12538436427712)"><path d="M-15.83 227.27 C-13.91 236.97, -8.58 243.46, -5.45 258.01" stroke="#000000" stroke-width="1.5" fill="none" stroke-dasharray="1.5 5"></path></g><g transform="translate(1351.633271241917 833.9999999999995) rotate(0 -3.815488443888171 130.12538436427712)"><path d="M4.69 227.86 C1.36 237.41, 1.45 243.75, -5.45 258.01" stroke="#000000" stroke-width="1.5" fill="none" stroke-dasharray="1.5 5"></path></g></g><g transform="translate(1297.5 1117.999999999999) rotate(3.562221243239139e-13 46.5 12.5)"><text x="0" y="18" font-family="Virgil, Segoe UI Emoji" font-size="20px" fill="#000000" text-anchor="start" style="white-space: pre;" direction="ltr">plots.html</text></g><g stroke-linecap="round"><g transform="translate(925.5191096928838 175.5673790806759) rotate(26.844529587946937 -206.06915715986338 247.73036854101832)"><path d="M-2.59 -1.04 C-71.2 82.08, -342.77 416.58, -410.89 499.54 M1.19 -4.08 C-67.88 78.1, -344.2 411.24, -413.33 495.05" stroke="#000000" stroke-width="1" fill="none"></path></g><g transform="translate(925.5191096928838 175.5673790806759) rotate(26.844529587946937 -206.06915715986338 247.73036854101832)"><path d="M-404.75 466.25 C-405.01 474.65, -412.34 485.22, -414.43 491.1 M-402.18 467.84 C-406.92 475.15, -407.23 479.46, -413 493.09" stroke="#000000" stroke-width="1" fill="none"></path></g><g transform="translate(925.5191096928838 175.5673790806759) rotate(26.844529587946937 -206.06915715986338 247.73036854101832)"><path d="M-388.94 479.33 C-394.43 483.18, -406.9 489.49, -414.43 491.1 M-386.37 480.92 C-395.1 485.03, -399.48 485.97, -413 493.09" stroke="#000000" stroke-width="1" fill="none"></path></g></g><g transform="translate(589.5350000369665 398.3621362050918) rotate(337.44582423295157 97.49999999999989 14.5)"><text x="0" y="20" font-family="Virgil, Segoe UI Emoji" font-size="22.851393243011167px" fill="#000000" text-anchor="start" style="white-space: pre;" direction="ltr">teraterm_output</text></g><g stroke-linecap="round"><g transform="translate(1179.3847376917302 40.593201086670206) rotate(0 0.08693120595080472 91.06993317492302)"><path d="M0.13 2.09 C-0.07 32.33, -0.19 150.52, 0.22 180.05" stroke="#000000" stroke-width="1.5" fill="none" stroke-dasharray="1.5 7"></path></g><g transform="translate(1179.3847376917302 40.593201086670206) rotate(0 0.08693120595080472 91.06993317492302)"><path d="M-7.19 152.07 C-5.19 165.28, -2.72 175, 2.42 183.12" stroke="#000000" stroke-width="1.5" fill="none" stroke-dasharray="1.5 5"></path></g><g transform="translate(1179.3847376917302 40.593201086670206) rotate(0 0.08693120595080472 91.06993317492302)"><path d="M13.33 151.96 C8.16 165.23, 3.47 174.99, 2.42 183.12" stroke="#000000" stroke-width="1.5" fill="none" stroke-dasharray="1.5 5"></path></g></g><g transform="translate(1082 10) rotate(0 101 12.5)"><text x="0" y="18" font-family="Virgil, Segoe UI Emoji" font-size="20px" fill="#000000" text-anchor="start" style="white-space: pre;" direction="ltr">teraterm_output.log</text></g><g stroke-linecap="round" transform="translate(1222 648.5) rotate(0 133 83.5)"><path d="M41.75 0 M41.75 0 C99.39 0.64, 145.88 -1.91, 224.25 0 M41.75 0 C81.72 -1.56, 121.95 -2.55, 224.25 0 M224.25 0 C254.69 -0.74, 263.45 12.32, 266 41.75 M224.25 0 C256.67 1.29, 264.86 16.29, 266 41.75 M266 41.75 C271.08 69.68, 271.43 99.14, 266 125.25 M266 41.75 C264.91 65.07, 267.17 90.25, 266 125.25 M266 125.25 C262.02 153.95, 249.23 165.06, 224.25 167 M266 125.25 C266.2 149.55, 249.45 165.19, 224.25 167 M224.25 167 C174.69 162.36, 128.92 166.93, 41.75 167 M224.25 167 C154.05 166.34, 84.71 165.69, 41.75 167 M41.75 167 C17.73 170.29, 2.37 156.72, 0 125.25 M41.75 167 C17.74 168, -1.92 151.91, 0 125.25 M0 125.25 C-0.65 99.41, 2.01 74.15, 0 41.75 M0 125.25 C-1.07 105.94, 0.19 88.96, 0 41.75 M0 41.75 C2.06 12.95, 10.9 -2.98, 41.75 0 M0 41.75 C-3.68 9.81, 13.34 1.24, 41.75 0" stroke="#000000" stroke-width="1" fill="none"></path></g><g transform="translate(1274.5 716.5) rotate(0 87.5 12.5)"><text x="87.5" y="18" font-family="Virgil, Segoe UI Emoji" font-size="20px" fill="#000000" text-anchor="middle" style="white-space: pre;" direction="ltr">html_generator.py</text></g><g stroke-linecap="round"><g transform="translate(1216.111937813128 623.2713283842145) rotate(106.2164115632919 80.68415932552148 -101.89392652991762)"><path d="M-1.38 0.39 C25.85 -33.9, 135.25 -170.19, 162.75 -204.18 M3.06 -1.87 C30.12 -35.85, 134.64 -167.71, 161.32 -200.79" stroke="#000000" stroke-width="1" fill="none"></path></g><g transform="translate(1216.111937813128 623.2713283842145) rotate(106.2164115632919 80.68415932552148 -101.89392652991762)"><path d="M152.31 -170.22 C153.44 -176.69, 156.98 -184.07, 158.59 -200.02 M149.83 -171.66 C155.17 -181.44, 158.24 -192.91, 161.41 -202.09" stroke="#000000" stroke-width="1" fill="none"></path></g><g transform="translate(1216.111937813128 623.2713283842145) rotate(106.2164115632919 80.68415932552148 -101.89392652991762)"><path d="M136.27 -183.03 C141.98 -185.81, 149.94 -189.65, 158.59 -200.02 M133.8 -184.46 C145.63 -189.13, 154.95 -195.6, 161.41 -202.09" stroke="#000000" stroke-width="1" fill="none"></path></g></g><g transform="translate(1275.5249549724722 483.75293216533044) rotate(416.2226675774685 27.311417168845765 14.224696442107131)"><text x="0" y="19.44939288421428" font-family="Virgil, Segoe UI Emoji" font-size="22.759514307371436px" fill="#000000" text-anchor="start" style="white-space: pre;" direction="ltr">plots</text></g><g stroke-linecap="round"><g transform="translate(278.8957797766907 291.7043680367009) rotate(0 219.269905460691 181.5045420702432)"><path d="M0.96 -1.9 C74.14 58.59, 364.93 303.58, 437.58 364.91" stroke="#000000" stroke-width="1.5" fill="none" stroke-dasharray="8 9"></path></g><g transform="translate(278.8957797766907 291.7043680367009) rotate(0 219.269905460691 181.5045420702432)"><path d="M406.69 354.26 C413.74 355.56, 422.33 357.44, 434.65 362.24" stroke="#000000" stroke-width="1.5" fill="none"></path></g><g transform="translate(278.8957797766907 291.7043680367009) rotate(0 219.269905460691 181.5045420702432)"><path d="M419.91 338.57 C423.93 343.83, 429.26 349.57, 434.65 362.24" stroke="#000000" stroke-width="1.5" fill="none"></path></g></g></svg>